<mxfile host="Electron" agent="Mozilla/5.0 (Windows NT 10.0; Win64; x64) AppleWebKit/537.36 (KHTML, like Gecko) draw.io/24.7.17 Chrome/128.0.6613.36 Electron/32.0.1 Safari/537.36" version="24.7.17">
  <diagram name="Page-1" id="Icaxh9YgE6_ko6Y2-2FJ">
    <mxGraphModel dx="1728" dy="1012" grid="1" gridSize="10" guides="1" tooltips="1" connect="1" arrows="1" fold="1" page="1" pageScale="1" pageWidth="850" pageHeight="1100" math="0" shadow="0">
      <root>
        <mxCell id="0" />
        <mxCell id="1" parent="0" />
        <mxCell id="2WgujiNxTRjsTM1ibm0o-6" value="Window" style="rounded=0;whiteSpace=wrap;html=1;" parent="1" vertex="1">
          <mxGeometry x="40" y="10" width="120" height="30" as="geometry" />
        </mxCell>
        <mxCell id="2WgujiNxTRjsTM1ibm0o-7" value="Scene" style="rounded=0;whiteSpace=wrap;html=1;" parent="1" vertex="1">
          <mxGeometry x="200" y="10" width="120" height="30" as="geometry" />
        </mxCell>
        <mxCell id="2WgujiNxTRjsTM1ibm0o-8" value="Canvas" style="rounded=0;whiteSpace=wrap;html=1;" parent="1" vertex="1">
          <mxGeometry x="360" y="10" width="120" height="30" as="geometry" />
        </mxCell>
        <mxCell id="2WgujiNxTRjsTM1ibm0o-9" value="Panel" style="rounded=0;whiteSpace=wrap;html=1;" parent="1" vertex="1">
          <mxGeometry x="520" y="10" width="120" height="30" as="geometry" />
        </mxCell>
        <mxCell id="2WgujiNxTRjsTM1ibm0o-10" value="Checkbox" style="rounded=0;whiteSpace=wrap;html=1;" parent="1" vertex="1">
          <mxGeometry x="730" y="10" width="120" height="30" as="geometry" />
        </mxCell>
        <mxCell id="2WgujiNxTRjsTM1ibm0o-11" value="Checkbox glyph" style="rounded=0;whiteSpace=wrap;html=1;" parent="1" vertex="1">
          <mxGeometry x="920" y="10" width="120" height="30" as="geometry" />
        </mxCell>
        <mxCell id="2WgujiNxTRjsTM1ibm0o-12" value="Slider" style="rounded=0;whiteSpace=wrap;html=1;" parent="1" vertex="1">
          <mxGeometry x="1080" y="10" width="120" height="30" as="geometry" />
        </mxCell>
        <mxCell id="2WgujiNxTRjsTM1ibm0o-13" value="Slider glyph" style="rounded=0;whiteSpace=wrap;html=1;" parent="1" vertex="1">
          <mxGeometry x="1270" y="10" width="120" height="30" as="geometry" />
        </mxCell>
        <mxCell id="2WgujiNxTRjsTM1ibm0o-14" value="" style="endArrow=none;dashed=1;html=1;strokeWidth=2;rounded=0;" parent="1" target="2WgujiNxTRjsTM1ibm0o-6" edge="1">
          <mxGeometry width="50" height="50" relative="1" as="geometry">
            <mxPoint x="100" y="1000" as="sourcePoint" />
            <mxPoint x="550" y="130" as="targetPoint" />
          </mxGeometry>
        </mxCell>
        <mxCell id="2WgujiNxTRjsTM1ibm0o-15" value="" style="endArrow=none;dashed=1;html=1;strokeWidth=2;rounded=0;" parent="1" target="2WgujiNxTRjsTM1ibm0o-7" edge="1">
          <mxGeometry width="50" height="50" relative="1" as="geometry">
            <mxPoint x="260" y="1000" as="sourcePoint" />
            <mxPoint x="260" y="70" as="targetPoint" />
          </mxGeometry>
        </mxCell>
        <mxCell id="2WgujiNxTRjsTM1ibm0o-16" value="" style="endArrow=none;dashed=1;html=1;strokeWidth=2;rounded=0;" parent="1" source="2WgujiNxTRjsTM1ibm0o-26" target="2WgujiNxTRjsTM1ibm0o-8" edge="1">
          <mxGeometry width="50" height="50" relative="1" as="geometry">
            <mxPoint x="420" y="1090" as="sourcePoint" />
            <mxPoint x="420" y="70" as="targetPoint" />
          </mxGeometry>
        </mxCell>
        <mxCell id="2WgujiNxTRjsTM1ibm0o-17" value="" style="endArrow=none;dashed=1;html=1;strokeWidth=2;rounded=0;" parent="1" target="2WgujiNxTRjsTM1ibm0o-9" edge="1">
          <mxGeometry width="50" height="50" relative="1" as="geometry">
            <mxPoint x="580" y="1000" as="sourcePoint" />
            <mxPoint x="580" y="70" as="targetPoint" />
          </mxGeometry>
        </mxCell>
        <mxCell id="2WgujiNxTRjsTM1ibm0o-18" value="" style="endArrow=none;dashed=1;html=1;strokeWidth=2;rounded=0;" parent="1" target="2WgujiNxTRjsTM1ibm0o-10" edge="1">
          <mxGeometry width="50" height="50" relative="1" as="geometry">
            <mxPoint x="790" y="1000" as="sourcePoint" />
            <mxPoint x="790" y="70" as="targetPoint" />
          </mxGeometry>
        </mxCell>
        <mxCell id="2WgujiNxTRjsTM1ibm0o-19" value="" style="endArrow=none;dashed=1;html=1;strokeWidth=2;rounded=0;" parent="1" target="2WgujiNxTRjsTM1ibm0o-11" edge="1">
          <mxGeometry width="50" height="50" relative="1" as="geometry">
            <mxPoint x="980" y="1000" as="sourcePoint" />
            <mxPoint x="980" y="70" as="targetPoint" />
          </mxGeometry>
        </mxCell>
        <mxCell id="2WgujiNxTRjsTM1ibm0o-20" value="" style="endArrow=none;dashed=1;html=1;strokeWidth=2;rounded=0;" parent="1" target="2WgujiNxTRjsTM1ibm0o-12" edge="1">
          <mxGeometry width="50" height="50" relative="1" as="geometry">
            <mxPoint x="1140" y="1000" as="sourcePoint" />
            <mxPoint x="1140" y="70" as="targetPoint" />
          </mxGeometry>
        </mxCell>
        <mxCell id="2WgujiNxTRjsTM1ibm0o-21" value="" style="endArrow=none;dashed=1;html=1;strokeWidth=2;rounded=0;" parent="1" target="2WgujiNxTRjsTM1ibm0o-13" edge="1">
          <mxGeometry width="50" height="50" relative="1" as="geometry">
            <mxPoint x="1330" y="1000" as="sourcePoint" />
            <mxPoint x="1330" y="70" as="targetPoint" />
          </mxGeometry>
        </mxCell>
        <mxCell id="2WgujiNxTRjsTM1ibm0o-22" value="" style="endArrow=classic;html=1;rounded=0;entryX=1;entryY=1;entryDx=0;entryDy=0;exitX=0;exitY=1;exitDx=0;exitDy=0;" parent="1" source="2WgujiNxTRjsTM1ibm0o-25" target="2WgujiNxTRjsTM1ibm0o-25" edge="1">
          <mxGeometry width="50" height="50" relative="1" as="geometry">
            <mxPoint x="100" y="100" as="sourcePoint" />
            <mxPoint x="170" y="90" as="targetPoint" />
          </mxGeometry>
        </mxCell>
        <mxCell id="2WgujiNxTRjsTM1ibm0o-23" value="" style="rounded=0;whiteSpace=wrap;html=1;" parent="1" vertex="1">
          <mxGeometry x="250" y="100" width="20" height="870" as="geometry" />
        </mxCell>
        <mxCell id="2WgujiNxTRjsTM1ibm0o-25" value="Resize(Rectangle)" style="text;html=1;align=center;verticalAlign=middle;whiteSpace=wrap;rounded=0;" parent="1" vertex="1">
          <mxGeometry x="100" y="70" width="150" height="30" as="geometry" />
        </mxCell>
        <mxCell id="2WgujiNxTRjsTM1ibm0o-27" value="" style="endArrow=none;dashed=1;html=1;strokeWidth=2;rounded=0;" parent="1" target="2WgujiNxTRjsTM1ibm0o-26" edge="1">
          <mxGeometry width="50" height="50" relative="1" as="geometry">
            <mxPoint x="420" y="1000" as="sourcePoint" />
            <mxPoint x="420" y="150" as="targetPoint" />
          </mxGeometry>
        </mxCell>
        <mxCell id="2WgujiNxTRjsTM1ibm0o-26" value="" style="rounded=0;whiteSpace=wrap;html=1;" parent="1" vertex="1">
          <mxGeometry x="410" y="160" width="20" height="60" as="geometry" />
        </mxCell>
        <mxCell id="2WgujiNxTRjsTM1ibm0o-30" value="" style="rounded=0;whiteSpace=wrap;html=1;" parent="1" vertex="1">
          <mxGeometry x="570" y="280" width="20" height="660" as="geometry" />
        </mxCell>
        <mxCell id="2WgujiNxTRjsTM1ibm0o-31" value="" style="endArrow=classic;html=1;rounded=0;exitX=0;exitY=1;exitDx=0;exitDy=0;entryX=0;entryY=0;entryDx=0;entryDy=0;" parent="1" source="2WgujiNxTRjsTM1ibm0o-32" edge="1">
          <mxGeometry width="50" height="50" relative="1" as="geometry">
            <mxPoint x="520" y="250" as="sourcePoint" />
            <mxPoint x="570" y="280.00000000000205" as="targetPoint" />
          </mxGeometry>
        </mxCell>
        <mxCell id="2WgujiNxTRjsTM1ibm0o-32" value="Rescale(Rectangle)" style="text;html=1;align=center;verticalAlign=middle;whiteSpace=wrap;rounded=0;" parent="1" vertex="1">
          <mxGeometry x="270" y="250" width="300" height="30" as="geometry" />
        </mxCell>
        <mxCell id="2WgujiNxTRjsTM1ibm0o-37" value="" style="rounded=0;whiteSpace=wrap;html=1;" parent="1" vertex="1">
          <mxGeometry x="780" y="340" width="20" height="150" as="geometry" />
        </mxCell>
        <mxCell id="2WgujiNxTRjsTM1ibm0o-38" value="" style="endArrow=classic;html=1;rounded=0;exitX=0;exitY=1;exitDx=0;exitDy=0;entryX=1;entryY=1;entryDx=0;entryDy=0;" parent="1" source="2WgujiNxTRjsTM1ibm0o-39" target="2WgujiNxTRjsTM1ibm0o-39" edge="1">
          <mxGeometry width="50" height="50" relative="1" as="geometry">
            <mxPoint x="680" y="310" as="sourcePoint" />
            <mxPoint x="730" y="340" as="targetPoint" />
          </mxGeometry>
        </mxCell>
        <mxCell id="2WgujiNxTRjsTM1ibm0o-39" value="Rescale(Checkbox Rectangle)" style="text;html=1;align=center;verticalAlign=middle;whiteSpace=wrap;rounded=0;" parent="1" vertex="1">
          <mxGeometry x="590" y="310" width="190" height="30" as="geometry" />
        </mxCell>
        <mxCell id="2WgujiNxTRjsTM1ibm0o-64" value="" style="endArrow=classic;html=1;rounded=0;exitX=0;exitY=1;exitDx=0;exitDy=0;entryX=1;entryY=1;entryDx=0;entryDy=0;" parent="1" source="2WgujiNxTRjsTM1ibm0o-65" target="2WgujiNxTRjsTM1ibm0o-65" edge="1">
          <mxGeometry width="50" height="50" relative="1" as="geometry">
            <mxPoint x="390" y="250" as="sourcePoint" />
            <mxPoint x="440" y="200" as="targetPoint" />
          </mxGeometry>
        </mxCell>
        <mxCell id="2WgujiNxTRjsTM1ibm0o-65" value="Resize(Rectangle)" style="text;html=1;align=center;verticalAlign=middle;whiteSpace=wrap;rounded=0;" parent="1" vertex="1">
          <mxGeometry x="270" y="130" width="140" height="30" as="geometry" />
        </mxCell>
        <mxCell id="xgN3PtYMEYdAYPBslLqn-1" value="" style="endArrow=classic;html=1;rounded=0;exitX=0;exitY=1;exitDx=0;exitDy=0;entryX=1;entryY=1;entryDx=0;entryDy=0;" parent="1" source="xgN3PtYMEYdAYPBslLqn-2" target="xgN3PtYMEYdAYPBslLqn-2" edge="1">
          <mxGeometry width="50" height="50" relative="1" as="geometry">
            <mxPoint x="890" y="370" as="sourcePoint" />
            <mxPoint x="940" y="400" as="targetPoint" />
          </mxGeometry>
        </mxCell>
        <mxCell id="xgN3PtYMEYdAYPBslLqn-2" value="Rescale(Glyph Rectangle)" style="text;html=1;align=center;verticalAlign=middle;whiteSpace=wrap;rounded=0;" parent="1" vertex="1">
          <mxGeometry x="800" y="370" width="170" height="30" as="geometry" />
        </mxCell>
        <mxCell id="xgN3PtYMEYdAYPBslLqn-3" value="" style="rounded=0;whiteSpace=wrap;html=1;" parent="1" vertex="1">
          <mxGeometry x="970" y="400" width="20" height="60" as="geometry" />
        </mxCell>
        <mxCell id="xgN3PtYMEYdAYPBslLqn-6" value="" style="endArrow=classic;html=1;rounded=0;exitX=0;exitY=1;exitDx=0;exitDy=0;entryX=1;entryY=1;entryDx=0;entryDy=0;" parent="1" source="xgN3PtYMEYdAYPBslLqn-7" target="xgN3PtYMEYdAYPBslLqn-7" edge="1">
          <mxGeometry width="50" height="50" relative="1" as="geometry">
            <mxPoint x="680" y="520" as="sourcePoint" />
            <mxPoint x="730" y="550" as="targetPoint" />
          </mxGeometry>
        </mxCell>
        <mxCell id="xgN3PtYMEYdAYPBslLqn-7" value="Move(Slider Point)" style="text;html=1;align=center;verticalAlign=middle;whiteSpace=wrap;rounded=0;" parent="1" vertex="1">
          <mxGeometry x="590" y="520" width="540" height="30" as="geometry" />
        </mxCell>
        <mxCell id="xgN3PtYMEYdAYPBslLqn-8" value="" style="rounded=0;whiteSpace=wrap;html=1;" parent="1" vertex="1">
          <mxGeometry x="1130" y="550" width="20" height="150" as="geometry" />
        </mxCell>
        <mxCell id="xgN3PtYMEYdAYPBslLqn-9" value="" style="endArrow=classic;html=1;rounded=0;exitX=0;exitY=1;exitDx=0;exitDy=0;entryX=1;entryY=1;entryDx=0;entryDy=0;" parent="1" source="xgN3PtYMEYdAYPBslLqn-10" target="xgN3PtYMEYdAYPBslLqn-10" edge="1">
          <mxGeometry width="50" height="50" relative="1" as="geometry">
            <mxPoint x="1240" y="580" as="sourcePoint" />
            <mxPoint x="1290" y="610" as="targetPoint" />
          </mxGeometry>
        </mxCell>
        <mxCell id="xgN3PtYMEYdAYPBslLqn-10" value="Move(Glyph Point)" style="text;html=1;align=center;verticalAlign=middle;whiteSpace=wrap;rounded=0;" parent="1" vertex="1">
          <mxGeometry x="1150" y="580" width="170" height="30" as="geometry" />
        </mxCell>
        <mxCell id="xgN3PtYMEYdAYPBslLqn-11" value="" style="rounded=0;whiteSpace=wrap;html=1;" parent="1" vertex="1">
          <mxGeometry x="1320" y="610" width="20" height="60" as="geometry" />
        </mxCell>
        <mxCell id="xgN3PtYMEYdAYPBslLqn-12" value="" style="endArrow=classic;html=1;rounded=0;exitX=0;exitY=1;exitDx=0;exitDy=0;entryX=1;entryY=1;entryDx=0;entryDy=0;" parent="1" source="xgN3PtYMEYdAYPBslLqn-13" target="xgN3PtYMEYdAYPBslLqn-13" edge="1">
          <mxGeometry width="50" height="50" relative="1" as="geometry">
            <mxPoint x="680" y="730" as="sourcePoint" />
            <mxPoint x="730" y="760" as="targetPoint" />
          </mxGeometry>
        </mxCell>
        <mxCell id="xgN3PtYMEYdAYPBslLqn-13" value="Rescale(Slider Rectangle)" style="text;html=1;align=center;verticalAlign=middle;whiteSpace=wrap;rounded=0;" parent="1" vertex="1">
          <mxGeometry x="590" y="730" width="540" height="30" as="geometry" />
        </mxCell>
        <mxCell id="xgN3PtYMEYdAYPBslLqn-14" value="" style="rounded=0;whiteSpace=wrap;html=1;" parent="1" vertex="1">
          <mxGeometry x="1130" y="760" width="20" height="150" as="geometry" />
        </mxCell>
        <mxCell id="xgN3PtYMEYdAYPBslLqn-15" value="" style="endArrow=classic;html=1;rounded=0;exitX=0;exitY=1;exitDx=0;exitDy=0;entryX=1;entryY=1;entryDx=0;entryDy=0;" parent="1" source="xgN3PtYMEYdAYPBslLqn-16" target="xgN3PtYMEYdAYPBslLqn-16" edge="1">
          <mxGeometry width="50" height="50" relative="1" as="geometry">
            <mxPoint x="1240" y="790" as="sourcePoint" />
            <mxPoint x="1290" y="820" as="targetPoint" />
          </mxGeometry>
        </mxCell>
        <mxCell id="xgN3PtYMEYdAYPBslLqn-16" value="Rescale(Glyph Rectangle)" style="text;html=1;align=center;verticalAlign=middle;whiteSpace=wrap;rounded=0;" parent="1" vertex="1">
          <mxGeometry x="1150" y="790" width="170" height="30" as="geometry" />
        </mxCell>
        <mxCell id="xgN3PtYMEYdAYPBslLqn-17" value="" style="rounded=0;whiteSpace=wrap;html=1;" parent="1" vertex="1">
          <mxGeometry x="1320" y="820" width="20" height="60" as="geometry" />
        </mxCell>
      </root>
    </mxGraphModel>
  </diagram>
</mxfile>
